<svg xmlns="http://www.w3.org/2000/svg" viewBox="0 0 256 256" role="img" aria-labelledby="title desc">
  <title id="title">CyberLens brand mark</title>
  <desc id="desc">A modern security observability icon combining a focus frame and magnifying lens.</desc>
  <defs>
    <linearGradient id="panel" x1="28" x2="228" y1="24" y2="236" gradientUnits="userSpaceOnUse">
      <stop offset="0" stop-color="#15161d" />
      <stop offset="1" stop-color="#0b0d12" />
    </linearGradient>
    <radialGradient id="halo" cx="0" cy="0" r="1" gradientTransform="translate(116 116) rotate(90) scale(110)">
      <stop offset="0" stop-color="#3dd8c5" stop-opacity="0.34" />
      <stop offset="0.65" stop-color="#3dd8c5" stop-opacity="0.08" />
      <stop offset="1" stop-color="#3dd8c5" stop-opacity="0" />
    </radialGradient>
    <linearGradient id="ring" x1="66" x2="192" y1="62" y2="190" gradientUnits="userSpaceOnUse">
      <stop offset="0" stop-color="#59ead7" />
      <stop offset="0.58" stop-color="#3dd8c5" />
      <stop offset="1" stop-color="#f97316" />
    </linearGradient>
    <linearGradient id="frame" x1="68" x2="170" y1="70" y2="170" gradientUnits="userSpaceOnUse">
      <stop offset="0" stop-color="#51e6d3" />
      <stop offset="1" stop-color="#23b9a8" />
    </linearGradient>
  </defs>
  <rect width="256" height="256" rx="64" fill="#07080b" />
  <rect x="12" y="12" width="232" height="232" rx="52" fill="url(#panel)" stroke="#262b33" stroke-width="2" />
  <circle cx="116" cy="116" r="88" fill="url(#halo)" />
  <path d="M84 58H68c-5.523 0-10 4.477-10 10v16" fill="none" stroke="url(#frame)" stroke-linecap="round" stroke-linejoin="round" stroke-width="10" />
  <path d="M58 148v16c0 5.523 4.477 10 10 10h16" fill="none" stroke="url(#frame)" stroke-linecap="round" stroke-linejoin="round" stroke-width="10" />
  <path d="M148 58h16c5.523 0 10 4.477 10 10v16" fill="none" stroke="url(#frame)" stroke-linecap="round" stroke-linejoin="round" stroke-width="10" />
  <path d="M174 148v16c0 5.523-4.477 10-10 10h-16" fill="none" stroke="url(#frame)" stroke-linecap="round" stroke-linejoin="round" stroke-width="10" />
  <circle cx="116" cy="116" r="44" fill="#0f1117" stroke="url(#ring)" stroke-width="12" />
  <circle cx="116" cy="116" r="15" fill="#3dd8c5" />
  <path d="M149 149l39 39" fill="none" stroke="#f97316" stroke-linecap="round" stroke-width="14" />
  <circle cx="194" cy="65" r="8" fill="#f97316" />
</svg>
